/* XPM */
static char *ea17de6066b14321a52f1a3d1fad70ce0bW7oJ2k2hmeSKan[] = {
/* columns rows colors chars-per-pixel */
"64 64 102 2 ",
"   c None",
".  c #003263",
"X  c #003264",
"o  c #003265",
"O  c #003365",
"+  c #003366",
"@  c #003367",
"#  c #003468",
"$  c #00366B",
"%  c #00366D",
"&  c #00376E",
"*  c #003870",
"=  c #003971",
"-  c #003A74",
";  c #003D79",
":  c #003E7C",
">  c #003F7E",
",  c #004080",
"<  c #004285",
"1  c #00458A",
"2  c #00468B",
"3  c #00468C",
"4  c #004A94",
"5  c #004A95",
"6  c #004C97",
"7  c #004C98",
"8  c #004D98",
"9  c #004C99",
"0  c #004D99",
"q  c #004D9A",
"w  c #004F9F",
"e  c #01519F",
"r  c #0050A1",
"t  c #0252A0",
"y  c #0051A2",
"u  c #0253A3",
"i  c #0052A4",
"p  c #0354A4",
"a  c #0354A5",
"s  c #0054A7",
"d  c #0355A6",
"f  c #0456A8",
"g  c #0056AC",
"h  c #0057AE",
"j  c #0059B1",
"k  c #0059B2",
"l  c #005AB4",
"z  c #005BB6",
"x  c #005FBD",
"c  c #0062C4",
"v  c #0063C7",
"b  c #0064C7",
"n  c #0A65C0",
"m  c #0065CA",
"M  c #0065CB",
"N  c #0065CC",
"B  c #0066CC",
"V  c #0368CE",
"C  c #0369CE",
"Z  c #0D6DCC",
"A  c #0E6ECE",
"S  c #0068D1",
"D  c #0069D2",
"F  c #006AD4",
"G  c #006BD5",
"H  c #006CD9",
"J  c #006DD9",
"K  c #006EDD",
"L  c #0E72D5",
"P  c #0070DF",
"I  c #1074D9",
"U  c #1376D9",
"Y  c #1176DB",
"T  c #1779DB",
"R  c #1879DB",
"E  c #0070E0",
"W  c #0071E2",
"Q  c #0071E3",
"!  c #0072E3",
"~  c #0072E5",
"^  c #0073E6",
"/  c #0073E7",
"(  c #0074E7",
")  c #0074E8",
"_  c #137BE3",
"`  c #147EE9",
"'  c #147FE9",
"]  c #1683F0",
"[  c #1784F1",
"{  c #1786F5",
"}  c #1A8CFE",
"|  c #1A8CFF",
" . c #1A8DFF",
".. c #2584E4",
"X. c #2685E5",
"o. c #2B8AE8",
"O. c #3390ED",
"+. c #3B97F3",
"@. c #3E9AF5",
"#. c #49A3FC",
"$. c #4DA6FF",
"%. c #4EA7FF",
/* pixels */
"                                                                                                                                ",
"                                                                                                                                ",
"                                                                                                                                ",
"                                                                                                                                ",
"                                                                                                                                ",
"                                                                                                                                ",
"                                                                                                                                ",
"                                                                                                                                ",
"                                                                                                                                ",
"                                                                                                                                ",
"                                                +.R                                                                             ",
"                                                  @.L                                                                           ",
"                                                  %.O.B B                                                                       ",
"                                                  %.#.U M                                                                       ",
"                                                  %.%.X.M B                                                                     ",
"                                                  %.%.o.B B B                                                                   ",
"                                                    %.X.M B B                                                                   ",
"                                                    #.T M B B                                                                   ",
"                                                      C B B B                                                                   ",
"                                                    B B B B B                                                                   ",
"                                                    B B B B B                                                                   ",
"                                                  B B B B B B                                                                   ",
"                                                B B B B B B                                                                     ",
"                                              B B B B B B B                                                                     ",
"                                            B B B B B B B                                                                       ",
"                                            B B B B B B B                                                                       ",
"                                                  B B B                                                                         ",
"                                                    B B             0 0                                                         ",
"                                                                  0 0 0 0 0 0                                                   ",
"                                                                  0 0 0 0 0 0 0 0 0 0 0 0 0                                     ",
"                                                                0 0 0 0 0 0 0 0 0 0 0 0 0                                       ",
"                                                                0 0 0 0 0 0 0 0 0 0 0 0 0                                       ",
"                                                              0 0 0 0 0 0 0 0 0 0 0 0 0                                         ",
"                                                            0 0 0 0 0 0 0 0 0 0 0 0 0                                           ",
"                                               . . .      0 0 0 0 0 0 0 0 0 0 0 0 0                                             ",
"                                           .} }  . . ._ r 0 0 0 0 0 0 0 0 0 0 0 0                                               ",
"                                     . .} } }  .} ] Z a 0 0 0 0 0 0 0 0 0 0 0 0                                                 ",
"                              A Y ` [ { { [ ] I n d 0 0 0 0 0 0 0 0 0 0 0 0 0                                                   ",
"                                  t d d d d r 0 4 0 0 0 0 0 0 0 0 0 0 0 0                                                       ",
"                                      0 0 0 0 0 0 0 0 0 0 0 0 0 0 0 0 0                     ^ ^                                 ",
"                                            0 0 0 0 0 0 0 0 0 0 0                         ^ ^ ^                                 ",
"                                                                                      ^ ^ ^ ^ ^ ^                               ",
"                                                                                    ^ ^ ^ ^ ^ ^ ^ ^ ^                           ",
"                                                                                ^ ^ ^ ^ ^ ^ ^ ^ ^ ^ ^ ^                         ",
"                                    + +                                     ^ ^ ^ ^ ^ ^ ^ ^ ^ ^ ^ ^ ^ ^ ^ ^                     ",
"  + +                         + + + + + X                               ^ ^ ^ ^ ^ ^ ^ ^ ^ ^ ^ ^ ^ ^ ^ ^ ^ ^ ^ ^ ^               ",
"    + + + + + + + + + + + + + + + + + + + +                       ^ ^ ^ ^ ^ ^ ^ ^ ^ ^ ^ ^ ^ ^ ^ ^ ^ ^ ^ ^ ^ ^ ^ ^ ^ ^ ^         ",
"        + + + + + + + + + + + + + + + + + + + +           ^ ^ ^ ^ ^ ^ ^ ^ ^ ^ ^ ^ ^ ^ ^ ^ ^ ^ ^ ^ ^ ^ ^ ^ ^ ^ ^ ^ / ) ^ P D v   ",
"          + + + + + + + + + + + + + + + + + + + # 0 F ) ^ ^ ^ ^ ^ ^ ^ ^ ^ ^ ^ ^ ^ ^ ^ ^ ^ ^ ^ ^ ^ ^ ^ ^ ^ ^ ) ) ^ J v g 4       ",
"              + + + + + + + + + + + + + + + + + X # > i M Q ( ) ^ ^ ^ ^ ^ ^ ^ ^ ^ ^ ^ ^ ^ ^ ^ ^ ) ) ) ( Q J v h 4 , *           ",
"                    + + + + + + + + + + + + + + X # X X * < r x D K ^ ^ ) ) ^ ) ) ) ^ ^ ^ ^ Q K F b z r 2 ; % +                 ",
"                        + + + + + + + + + + + + # X # X X X X # * > 3 0 r h k z z k h g w 4 2 , - % X X .                       ",
"                              + + + + + + + + + X # X # X # X # X X X X X X + # X + X X X X X X X +                             ",
"                                      + + + + + # X # X # X # X + + + + X # # X X + X # + +                                     ",
"                                                X # X # X # X # + + + + # X X #                                                 ",
"                                                                                                                                ",
"                                                                                                                                ",
"                                                                                                                                ",
"                                                                                                                                ",
"                                                                                                                                ",
"                                                                                                                                ",
"                                                                                                                                ",
"                                                                                                                                ",
"                                                                                                                                "
};
