/* XPM */
static char *_2177b60d9644be19d24c4bf27e01577AiTtATMA4YzEFYfc[] = {
/* columns rows colors chars-per-pixel */
"32 32 61 1 ",
"  c None",
". c #003264",
"X c #003265",
"o c #003365",
"O c #003366",
"+ c #003367",
"@ c #003468",
"# c #003569",
"$ c #00356A",
"% c #00356B",
"& c #00366B",
"* c #003972",
"= c #003C77",
"- c #004283",
"; c #00488F",
": c #004891",
"> c #004C98",
", c #004D99",
"< c #004D9A",
"1 c #01509E",
"2 c #0050A0",
"3 c #0251A0",
"4 c #0053A7",
"5 c #0456A7",
"6 c #0056AD",
"7 c #0057AD",
"8 c #0057AF",
"9 c #0559AC",
"0 c #055AAE",
"q c #005CB8",
"w c #005DB9",
"e c #005DBA",
"r c #0061C2",
"t c #0061C3",
"y c #0063C7",
"u c #0065CA",
"i c #0066CC",
"p c #0167CD",
"a c #0268CD",
"s c #0469CF",
"d c #006BD5",
"f c #006BD7",
"g c #006DD9",
"h c #0F71D3",
"j c #0071E2",
"k c #0071E3",
"l c #0072E4",
"z c #0073E6",
"x c #0073E7",
"c c #0074E7",
"v c #0074E8",
"b c #137AE2",
"n c #157FEA",
"m c #1580EB",
"M c #1682EE",
"N c #1784F2",
"B c #1A8DFF",
"V c #2585E4",
"C c #2D8BE9",
"Z c #3391EE",
"A c #3693F0",
/* pixels */
"                                ",
"                                ",
"                                ",
"                                ",
"                                ",
"            Z                   ",
"             V                  ",
"             Aa                 ",
"             Cii                ",
"             sii                ",
"             ii                 ",
"            iii                 ",
"           iiii                 ",
"             i   <              ",
"                 ><<<           ",
"                <<><<<          ",
"               <<>1><<          ",
"           BBm1>><>><           ",
"        bMNmh0<<>>,,            ",
"         951<<<<>1              ",
"            <<<       zz        ",
"                     zzzzz      ",
"        ++         czzzzzzzz    ",
"  +++++.+++     cccczzzzzzzvcjf ",
"   ++++++++.*7djvvvvvvvvvjgue7  ",
"     ++.++.+++=;4qtuyte72:-     ",
"        ++X@+++.XX@&&@@X        ",
"               +X               ",
"                                ",
"                                ",
"                                ",
"                                "
};
