/* XPM */
static char *_5cacf3b269f4234dc4e449261431f93bozT408F8bHgVJjZ[] = {
/* columns rows colors chars-per-pixel */
"16 16 25 1 ",
"  c None",
". c #003265",
"X c #003366",
"o c #00366C",
"O c #003A73",
"+ c #003B76",
"@ c #003D7A",
"# c #004D99",
"$ c #004E9A",
"% c #014E9B",
"& c #0055AA",
"* c #065CB1",
"= c #005DB9",
"- c #0060C0",
"; c #0062C4",
": c #0064C8",
"> c #0066CC",
", c #0066CD",
"< c #0469CE",
"1 c #0D6BCA",
"2 c #0E6FD0",
"3 c #006FDE",
"4 c #0073E6",
"5 c #0074E8",
"6 c #2F8DEB",
/* pixels */
"                ",
"                ",
"                ",
"      6         ",
"       <        ",
"      >>        ",
"      >         ",
"        ###     ",
"       %###     ",
"    21*##       ",
"           44   ",
"  XXX    555543 ",
"  XXXX@&->>:-=  ",
"     XXXo++     ",
"                ",
"                "
};
